<?xml version="1.0" encoding="UTF-8"?>
<svg xmlns="http://www.w3.org/2000/svg" viewBox="0 0 100 100" width="100" height="100">
  <!-- Donkey Kong's face -->
  <path d="M30,30 C30,20 70,20 70,30 L70,60 C70,75 30,75 30,60 Z" fill="#8B4513"/>
  <!-- Eyes -->
  <circle cx="40" cy="40" r="5" fill="white"/>
  <circle cx="60" cy="40" r="5" fill="white"/>
  <circle cx="40" cy="40" r="2" fill="black"/>
  <circle cx="60" cy="40" r="2" fill="black"/>
  <!-- Mouth -->
  <path d="M40,55 C40,65 60,65 60,55" fill="none" stroke="black" stroke-width="2"/>
  <!-- Tie -->
  <polygon points="50,60 45,75 50,80 55,75" fill="#ff0000"/>
  <!-- Banana -->
  <path d="M20,15 C15,15 15,25 20,30 C25,30 25,20 20,15 Z" fill="#FFD700"/>
</svg>
